
        <svg xmlns="http://www.w3.org/2000/svg" xmlns:xlink="http://www.w3.org/1999/xlink" version="1.1" width="3111.9402985074626" 
        height="972.8361173235728" viewBox="0 0 3111.9402985074626 972.8361173235728">
			
			<g transform="scale(5.597014925373134) translate(10, 10)">
				<defs id="SvgjsDefs10317"><linearGradient id="SvgjsLinearGradient10326"><stop id="SvgjsStop10327" stop-color="#8f5e25" offset="0"></stop><stop id="SvgjsStop10328" stop-color="#fbf4a1" offset="0.5"></stop><stop id="SvgjsStop10329" stop-color="#8f5e25" offset="1"></stop></linearGradient><linearGradient id="SvgjsLinearGradient10330"><stop id="SvgjsStop10331" stop-color="#8f5e25" offset="0"></stop><stop id="SvgjsStop10332" stop-color="#fbf4a1" offset="0.5"></stop><stop id="SvgjsStop10333" stop-color="#8f5e25" offset="1"></stop></linearGradient><linearGradient id="SvgjsLinearGradient10334"><stop id="SvgjsStop10335" stop-color="#8f5e25" offset="0"></stop><stop id="SvgjsStop10336" stop-color="#fbf4a1" offset="0.5"></stop><stop id="SvgjsStop10337" stop-color="#8f5e25" offset="1"></stop></linearGradient><linearGradient id="SvgjsLinearGradient10338"><stop id="SvgjsStop10339" stop-color="#8f5e25" offset="0"></stop><stop id="SvgjsStop10340" stop-color="#fbf4a1" offset="0.5"></stop><stop id="SvgjsStop10341" stop-color="#8f5e25" offset="1"></stop></linearGradient></defs><g id="SvgjsG10318" featureKey="rZF8Vg-0" transform="matrix(1.5828003457303916,0,0,1.5828003457303916,-19.139221792647703,-2.233328667375181)" fill="url(#SvgjsLinearGradient10326)"><path xmlns="http://www.w3.org/2000/svg" d="M12.092,7.984c0.136,0.091,3.24,2.113,3.584,2.589c1.644,2.274,0.564,4.87,5.177,9.957  c1.136,1.253,10.212,6.617,11.034,7.313c2.534,2.146,3.205,4.734,3.205,4.734s1.258-0.661,2.415,0  c0.571,0.327,2.873,0.848,2.563,0.598c-1.351-1.093-4.082-3.883-4.082-3.883s-5.083-4.874-8.463-6.771  c-9.962-5.59-7.577-7.361-9.16-10.455C16.682,8.777,12.092,7.984,12.092,7.984z"></path><path xmlns="http://www.w3.org/2000/svg" d="M40.703,32.937c-0.299-0.199-10.138-8.403-8.896-12.357c0.312-0.993-0.232-2.99-0.69-3.649  c-2.754-3.967-5.682-3.371-5.682-3.371s4.635-1.643,7.346,2.434c1.233,1.855,2.137,4.586,2.611,8.519  c0.221,1.834,4.013,3.974,4.732,5.675c0.136,0.321-0.07,1.052,0,1.394C40.197,31.942,40.703,32.937,40.703,32.937z"></path><path xmlns="http://www.w3.org/2000/svg" d="M30.565,22.919c0,0-6.012-3.674-7.217-4.941c-0.929-0.977-2.195-3.721-2.195-4.318c0-0.598-0.062-3.48,2.19-4.083  c2.374-0.635,4.082,0.896,4.082,0.896l-2.787,0.299c0,0-2.553,0.141-1.792,2.987c0.833,3.116,3.886,3.848,5.075,4.549  C30.753,19.978,30.565,22.919,30.565,22.919z"></path><path xmlns="http://www.w3.org/2000/svg" d="M33.997,32.378c0,0-1.448-2.831-4.779-5.177c-1.393-0.981-6.173-2.888-6.173-2.888s-5.757-2.81-6.583-5.014  c-0.319-0.851-0.785-2.354-0.785-2.354s-0.199-0.896-0.398-0.597c-0.2,0.299-0.417,3.259,0,4.232  c1.072,2.505,6.637,7.119,11.749,8.812C28.827,29.987,33.997,32.378,33.997,32.378z"></path><path xmlns="http://www.w3.org/2000/svg" d="M32.779,33.174c0.123-0.398-4.843-2.917-6.671-3.186c-2.047-0.301-5.79-0.441-8.269,0.395  c-2.651,0.893-4.551-2.685-4.551-2.685s0,3.883,3.615,4.383c2.187,0.302,4.259-0.517,6.132-0.11c2.166,0.47,4.328,3.129,5.686,2.099  C30.391,32.803,32.779,33.174,32.779,33.174z"></path><path xmlns="http://www.w3.org/2000/svg" d="M48.82,37.692c0.313-0.538-0.696-1.767-0.697-2.389c0-0.284,0.424-0.817,0.697-0.896c2.091-0.61,2.73,1.309,2.888,1.643  c0.467,0.997,0.286,3.012-0.797,4.331c-0.63,0.768-2.501,1.736-3.584,1.721c-2.507-0.036-3.086-2.219-3.186-2.518  s-1.396-4.966-1.257-6.161c0.046-0.399,0.652-1.017,0.56-1.506c-0.089-0.473-0.696-1.312-0.697-1.792  c-0.002-1.108,0.742-1.5,1.195-1.792c0.528-0.342,2.389-0.796,2.389-0.796s-1.78,1.207-1.879,1.705  c-0.1,0.498,0.187,1.804,1.083,1.904c0.896,0.1,2.077-0.576,2.489-1.12c0.405-0.534,0.859-1.833,0.996-2.489  c0.173-0.83-0.317-3.78-0.125-4.605c0.934-3.995,5.434-2.854,4.406-2.514c-3.232,1.067-1.991,3.772-1.991,3.753  c0-0.019,1.153,0.327,3.286-2.138c5.685-6.571,2.93-15.929,3.186-15.803c0.521,0.256,2.277,2.414,1.991,9.495  c-0.084,2.079-0.796,4.693-3.086,7.73c-0.542,0.718-7.567,7.965-7.567,7.965s-2.502,2.004-2.29,5.078  c0.028,0.407,0.61,1.16,0.996,1.294C48.06,37.875,48.694,37.909,48.82,37.692z"></path><path xmlns="http://www.w3.org/2000/svg" d="M60.049,18.657c0.524-1.322,3.664-2.972,3.664-2.972s0.668-5.138,2.59-7.606c1.945-2.498,5.487-3.183,5.487-3.183  c-4.9,3.514-6.578,9.953-4.294,9.359c3.397-0.883,5.875-3.484,6.074-3.783c0.103-0.154,1.652-2.445,2.141-3.298  c1.501-2.62,5.069-3.313,4.406-2.875c-2.611,1.724-5.238,6.912-3.474,6.096c1.983-0.917,7.021-3.781,9.97-7.366  c0.329-0.4,1.294-1.618,1.294-1.618s-2.989,5.979-3.497,6.658c-3.958,5.302-9.347,6.261-10.144,6.758  c-0.797,0.498-10.167,3.742-11.352,4.294c-2.159,1.005-5.575,4.862-4.778,3.597C59.214,21.007,60.013,18.75,60.049,18.657z"></path><path xmlns="http://www.w3.org/2000/svg" d="M50.724,31.582c0,0,5.822-6.729,6.721-7.486c0.946-0.796,3.887-2.966,5.339-3.691c2.804-1.399,11.139-3.98,11.836-4.118  c0.697-0.138,5.638-1.52,9.745-6.485c0.366-0.443,1.407-2.216,1.407-1.817s-0.992,3.596-1.407,4.767  c-1.083,3.062-3.472,4.991-5.165,5.787s-5.277,2.29-6.97,2.688c-1.693,0.398-7.809,2.596-8.364,3.116  c-0.824,0.772-1.92,3.119-3.024,3.355c-0.507,0.109-1.413-0.623-1.955-0.697c-0.688-0.094-2.116,0.304-2.688,0.697  c-0.667,0.459-2.19,2.39-2.19,2.39L50.724,31.582z"></path><path xmlns="http://www.w3.org/2000/svg" d="M51.273,34.067c0,0-0.911-0.866-2.05-0.482c-0.627,0.211,2.05-1.853,3.492-1.709c0.595,0.059,1.859-0.267,2.365-0.583  c0.655-0.411,1.071-1.58,1.717-2.005c1.214-0.801,3.436-0.413,4.049,0.205c3.901,3.932,10.22-3.473,10.121-2.975  c-0.1,0.498-2.277,3.883-3.783,4.665c-1.334,0.692-2.826,1.703-4.313,1.49c-2.408-0.344-3.363-2.445-5.277-1.494  c-0.68,0.338-2.545,1.768-3.189,1.654C50.769,32.189,51.273,34.067,51.273,34.067z"></path><path xmlns="http://www.w3.org/2000/svg" d="M63.319,26.205c0,0,2.099-1.847,5.078-2.788c3.559-1.124,4.923,0.639,5.476,0.783c5.542,1.436,9.289-4.446,11.55-9.644  c0.933-2.144-1.492,5.802-2.066,7.268c-1.98,5.053-7.317,6.24-9.892,5.318c-1.391-0.499-1.359-2.314-4.271-1.933  c-0.662,0.087-2.458,1.128-3.286,1.486C64.32,27.382,63.319,26.205,63.319,26.205z"></path><path xmlns="http://www.w3.org/2000/svg" d="M62.189,33.24c1.293,0.998,8.416-2.28,8.999-5.768c0.104-0.626-0.027,2.197-0.331,2.754  c-1.333,2.451-3.629,2.649-2.387,3.014c2.828,0.83,4.746-4.259,8.631-4.85c0.902-0.137,5.253,1.028,4.563,5.179  c-0.107,0.645-0.796,2.788-0.796,2.489s1.92-6.177-4.134-5.28c-0.882,0.13-3.439,2.082-3.98,2.791  c-0.735,0.963-2.224,1.813-3.732,1.433c-0.421-0.106-1.852-0.896-2.387-1.212c-0.975-0.576-2.314,0.955-3.783,0.281  C62.475,33.898,62.091,33.164,62.189,33.24z"></path><path xmlns="http://www.w3.org/2000/svg" d="M51.67,34.54c0.79-2.057,0.863,0.588,6.426-2.204c2.232-1.12,4.044,4.187,8.486,4.848c4.512,0.672,5.271-0.721,7.383-1.706  c0.545-0.254-2.317,1.86-3.085,2.486c-2.424,1.975-6.229,1.225-6.979,0.888c-2.4-1.08-3.335-3.667-6.071-4.087  c-3.213-0.493-5.276,0.726-5.276,0.726L51.67,34.54z"></path><path xmlns="http://www.w3.org/2000/svg" d="M52.715,36.36c0.539-0.902,3.034-1.061,4.083-0.996c1.113,0.069,2.405,0.752,3.002,1.694  c1.62,2.551,6.161,3.843,7.554,3.789c2.989-0.117,4.201-1.585,4.201-1.585s1.771-1.309,1.422-0.91s-2.347,2.842-3.453,3.286  c-2.597,1.04-6.654,0-6.654,0s-4.796-0.808-6.704-3.8c-0.375-0.587-1.579-1.037-3.012-0.449  C52.896,37.495,52.572,36.601,52.715,36.36z"></path><path xmlns="http://www.w3.org/2000/svg" d="M55.632,38.501c0.864,2.597,2.788,2.439,3.086,2.638c0.299,0.199,4.601,0.853,4.979,4.68  c0.127,1.292-0.092,2.551,0.598,4.68c1.678,5.181,5.735,4.565,5.177,4.779c-1.81,0.696-5.354-0.796-7.766-5.277  c-0.465-0.863-0.398-4.311-1.892-5.675c-0.575-0.524-3.573-0.919-4.182-1.892C54.564,40.729,55.322,37.568,55.632,38.501z"></path><path xmlns="http://www.w3.org/2000/svg" d="M53.119,37.954c-0.052-0.561,1.377,1.073,1.593,1.593c0.276,0.667-0.387,2.278,0,2.887c1.056,1.664,4.906,1.604,5.843,5.294  c0.173,0.683,1.502,5.552,0.992,4.496c-2.149-4.44-4.909-8.183-4.544-6.206c0.498,2.702-1.502,5.874-1.498,5.254  c0.037-4.386-0.516-5.374-3.195-9.635C51.781,40.798,53.374,40.695,53.119,37.954z"></path><path xmlns="http://www.w3.org/2000/svg" d="M34.707,60.917c-0.748,1.207-2.787,1.069-2.987,0.697c-0.604-1.12-0.075-1.68-0.075-1.68s0.859,1.395,1.568-0.1  c0.821-1.73,0.183-2.303,0.183-2.303s-0.404,0.991-0.681,1.195c-0.342,0.253-2.116,1.058-2.887-0.498  c-0.449-0.906-0.111-2.024,0-1.593c0.361,1.394,1.943,1.511,2.078,1.169c1.344-3.381-1.48-5.153-1.48-5.152  c0,0,0.37,1.477,0.243,1.953c-0.074,0.277-0.921,1.042-0.89,0.721c0.149-1.528-0.448-2.674-0.548-2.673c-0.1,0-0.17-0.881,0-1.095  c0.1-0.125-2.601,1.05-0.498,4.182c0.502,0.748-2.104,0.211-2.756-2.321c-0.748-2.9,0.523-3.735,1.562-4.051  c3.024-0.921,6.497,2.215,6.777,5.238c0.039,0.409,0.685-2.5,0.685-2.5s0.969,1.696,1.2,3.634  C36.359,57.077,35.47,59.684,34.707,60.917z"></path><path xmlns="http://www.w3.org/2000/svg" d="M50.495,54.5c0.685,0.352,0.665,1.84,0.665,1.84s0.692-4.427,0.941-4.128c0.249,0.299,0.398,2.278,0.398,2.278  s0.683-2.181,1.058-2.688c0.178-0.24,1.033-0.562,1.133,0.366c0.1,0.928,0,2.034,0,2.034s1.355-2.623,2.573-1.655  c2.872,2.283-1.179,6.523-1.179,6.523s0.597-2.045,0.597-2.788c0-0.821-0.385-1.383-0.762-1.322  c-1.112,0.181-2.404,4.747-2.424,4.11c-0.087-2.751,0-4.58,0-4.58s-1.25,3.639-1.17,6.534c0.016,0.539,0.259,2.533,0.687,2.511  c0.789-0.039,1.741-3.668,1.741-3.668s0.356,1.73,0.336,2.315c-0.031,0.905,0.182,2.525-1.051,3.392  c-2.039,1.433-2.69-1.008-3.031-1.824c-1.509-3.624-1.145-7.972-2.29-9.073c-0.248-0.239,1.294-0.475,1.294-0.475l1.493-2.51  c0,0,2.24-1.869,1.594-4.868c-0.151-0.702-0.979-1.922-1.245-2.589c-0.055-0.139-0.126-0.519,0-0.598  c0.387-0.242,1.195,0.641,1.195,0.641s-0.398-2.701-1.991-2.689c-0.623,0.004-2.291,0.921-2.688,1.121  c-0.398,0.199-0.747,1.269-0.486,2.016c0.335,0.958,0.411,0.691,0.535,2.894c0.06,1.062-0.198,3.297-0.789,4.182  c-0.163,0.245-1.427,0.934-1.128,0.336c0.561-1.12-2.613-3.192-2.613-3.192s1.005,1.523,1.083,2.67  c0.087,1.294-1.508,3.797-1.63,4.07c-0.498,1.111-2.697,2.454-2.637,2.588c0.21,0.473,3.707-1.319,3.707-1.319  s2.8-1.418,3.609-2.464c0.183-0.236,0.946-0.288,0.946-0.288"></path><path xmlns="http://www.w3.org/2000/svg" d="M48.536,55.303c0,0-1.351,3.232-1.718,4.546c-0.858,3.074,0.771,6.165-5.147,8.458c-3.066,1.188-5.529-1.933-4.723-1.529  c1.344,0.672,5.113,0.895,7.037-3.41c0.394-0.881,1.701-5.526,1.065-4.68c-4.917,6.56-7.035,4.742-11.726,8.127  c-2.03,1.465-5.003,3.893-5.124,8.999c-0.031,1.295,0.186,6.624,1.433,7.442c0.891,0.585,2.404-1.554,2.623-1.967  c1.853-3.497,0.361-9.21,0.361-9.21s1.604,1.121,1.979,4.431c0.121,1.066,0.299,4.281,0.299,4.281s-1.805,2.848-2.639,3.584  c-0.751,0.663-2.653,1.486-3.634,1.692c-0.641,0.135-2.039-0.042-2.589-0.398c-0.786-0.508-1.621-2.518-1.929-3.211  c-1.458-3.286-0.658-11.751,2.525-13.729c0.634-0.394,1.021-4.119-1.554-8.375c0,0,2.253,2.116,2.551,2.514  c0.299,0.398,1.442,2.03,1.292,3.287c-0.056,0.47-0.297,1.791-0.297,1.791s2.108-4.353,4.147-5.454  c1.149-0.621,3.293-1.159,4.578-1.391C39.408,60.73,48.536,55.303,48.536,55.303z"></path><path xmlns="http://www.w3.org/2000/svg" d="M26.629,88.832h3.087c0,0,2.63,2.031,3.684,2.29c0.836,0.206,2.619-0.194,3.398-0.56c0.532-0.25,1.067-0.778,1.282-2.626  c0.127-1.099-2.595-3.584-2.595-3.584s2.246,0.306,3.553,1.762c0.745,0.83,1.755,4.262-0.958,5.606  c-1.136,0.563-4.36,1.564-3.784,1.593c4.886,0.243,6.87-0.361,6.87-0.361s0.65-0.131,0.821-0.262  c1.598-1.213,2.896-4.422,2.017-7.766c-1.17-4.451-3.436-3.858-3.436-3.858s1.345-0.647,2.34,0.05  c0.996,0.696,2.029,1.605,2.551,2.919c0.265,0.667,0.386,3.038,0.386,3.038s1.344-1.853,0.697-5.41  c-0.672-3.697-2.564-3.29-1.605-3.236c0.672,0.038,3.804,1.625,3.57,5.228c-0.695,10.678-8.299,11.089-7.901,11.089  c0.398,0,2.85-0.037,4.742-0.635c1.891-0.598,3.393-1.844,4.082-2.887c3.199-4.841,2.389-8.065,2.389-8.065  s-1.271-0.908-1.593-2.721c-0.697-3.925,2.788-4.646,3.584-4.646s8.768,1.643,9.857-1.892c1.854-6.013,4.581-3.188,6.529-7.605  c0.524-1.187,1.959,5.863-3.94,5.639c-1.442-0.055,0.448,2.24-2.39,4.256c-3.391,2.409-6.97,1.294-7.965,1.593  c-0.996,0.299-3.286,0.598-3.187,1.693s1.892,2.788,1.892,2.788s0.825-2.277,2.017-2.638c2.464-0.747,3.883,0.448,3.883,0.448  s-4.145,1.27-5.899,6.173c-0.882,2.466-2.527,5.744-6.423,8.834c-2.687,2.132-4.775,2.117-6.62,2.118  c-10.255,0.002-12.832-5.214-12.832-5.214L26.629,88.832z"></path><path xmlns="http://www.w3.org/2000/svg" d="M35.167,80.467c0,0,2.651-5.75,6.584-6.223c0.805-0.096,3.186-0.597,3.186-0.597s-2.149-0.732-2.887-0.896  c-2.402-0.535-4.232,0.1-5.127,0.921c-0.396,0.362-2.017,3.136-2.017,3.136L35.167,80.467z"></path><path xmlns="http://www.w3.org/2000/svg" d="M53.313,90.923c0,0,1.557-2.048,1.892-2.34c0.865-0.755,1.836-1.305,2.838-1.867c1.08-0.606,4.025-0.927,4.859-0.971  c1.234-0.064,3.354,0.747,3.354,0.747s-2.004-1.552-2.788-1.842c-2.29-0.846-4.754-0.665-5.352-0.366s-2.215,0.827-3.062,2.73  C54.621,87.993,53.313,90.923,53.313,90.923z"></path><path xmlns="http://www.w3.org/2000/svg" d="M22.908,76.075c0,0-0.895-1.786-1.605-2.651c-2.907-3.533-6.422-0.871-6.422-0.871s3.204-0.209,6.198,3.957  c1.055,1.467,2.128,4.941,2.128,4.941L22.908,76.075z"></path><path xmlns="http://www.w3.org/2000/svg" d="M26.007,88.832c0,0,0.373,1.394,0.622,3.111c0.119,0.819,0.074,1.242,0,2.066c-0.286,3.186-2.489,4.58-2.489,4.58  s3.659-1.643,4.033-5.115c0.199-1.856-0.716-2.481-1.083-3.099C26.729,89.769,26.007,88.832,26.007,88.832z"></path><path xmlns="http://www.w3.org/2000/svg" d="M41.913,53.971c-0.142,0.069-0.149,0.05-0.149,0.05s-1.842,1.119-1.842-1.356c0-0.315-0.59,0.763-0.675,1.067  c-0.396,1.408,1.471,1.595,1.471,1.595s-2.726,3.088-4.456,3.013c-0.915-0.04,0.896,1.307,2.365-0.038  c0.116-0.106,1.187-1.394,1.29-1.244c0.104,0.149-0.517,0.735-0.693,1.344c-0.323,1.12-1.97,1.252-2.19,1.244  c-1.371-0.049-1.459,1.114-1.549,1.519c-0.1,0.448,0.329-0.673,0.528-0.672c1.941,0.013,3.009-0.846,3.009-0.846l1.696-2.091  c0,0,0.846-0.747,1.045-0.946s1.145-2.03,1.145-2.03S43.518,53.187,41.913,53.971z"></path><path xmlns="http://www.w3.org/2000/svg" d="M42.062,54.482"></path><path xmlns="http://www.w3.org/2000/svg" d="M23.542,82.311c0,0,0.386,2.396,1.979,3.803c0.349,0.309,1.75,0.754,1.904,0.751c3.883-0.075,6.354-2.565,7.094-4.555  c0.597-1.606-0.621,2.742-2.128,4.368c-1.419,1.531-2.726,1.531-2.726,1.531h-3.249c0,0-1.117-0.405-1.344-0.709  c-2.203-2.95-1.531-5.489-1.531-5.489"></path><path xmlns="http://www.w3.org/2000/svg" d="M38.08,37.257c1.213,0.758,1.493,5.526,1.493,5.526c0.55-0.548,0.614-5.172,0.53-5.775c-0.147-1.06-0.929-3.136-2.982-2.777  c-0.791,0.139-2.39,1.848-2.39,2.368s-0.597,2.412-0.597,2.412s-1.518-0.924-0.996-2.987c0.435-1.718,3.286-3.087,3.286-3.087  s-3.93,0.648-4.729,2.589c-0.379,0.922-0.896,1.842,0.226,3.982c0.132,0.252-0.826,0.466-1.122,0.199  c-0.498-0.448-1.195-0.946-0.547-4.082c0.137-0.663,1.095-1.992,1.095-1.992s-5.281,0.64-4.182,9.16  c0.199,1.544,1.493,1.295,1.891,2.091c0.399,0.796,0.56,1.598,0.996,1.494c1.946-0.468,1.716,1.731,1.87,2.29  c0.52,1.892,1.909,2.527,2.904,2.776c0.75,0.188,2.992,3.695,2.992,3.695s0.669-2.3,0.796-3.087c0.45-2.788-0.281-4.38-2.646-6.303  c-1.88-1.529,1.869-3.758,2.708-0.728c0.235,0.85,0.134-2.091-0.278-3.063c-0.615-1.449-1.927-0.5-2.429-0.322  C34.42,42.185,35.879,35.881,38.08,37.257z M35.957,47.055c0.118,0.23,0.169,1.02,0.169,1.02s1.248,1.475,1.436,2.078  c0.246,0.789,0,3.306,0,3.306s-0.888-2.078-1.506-2.443c-0.297-0.176-1.367-1.015-1.689-1.138c-1.548-0.594-1.728-2.975-1.728-2.975  l1.893,2.589c0,0,1.025,0.572,1.242,0.498c0.169-0.058,0.222-0.68,0.222-0.68s-0.1-0.942-0.305-1.162  c-0.677-0.726-1.637-0.441-1.637-0.441s-0.71-1.903-1.176-2.374c-0.795-0.802-1.915-0.971-3.676-2.628  c-1.12-1.054-1.501-3.987-1.005-4.202c1.21-0.525,1.427,1.18,1.57,1.971c0.277,1.52,3.505,3.861,3.805,4.17  C34.201,45.291,35.57,46.3,35.957,47.055z M34.628,48.271c0.144-0.181,0.456-0.172,0.697,0.021c0.24,0.191,0.318,0.494,0.174,0.675  c-0.144,0.181-0.456,0.172-0.696-0.021C34.562,48.754,34.483,48.452,34.628,48.271z"></path><path xmlns="http://www.w3.org/2000/svg" d="M44.899,45.57c-0.722-0.312,1.693-0.149,2.24-2.589c0,0-1.701-0.34-2.738-1.344c-1.543-1.494-1.487-5.498-2.639-6.721  c-0.797-0.846-2.735-1.663-2.29-1.194c3.087,3.248,1.991,5.725,1.991,6.023c0,0.299-1.331,2.489-1.341,4.58  c-0.01,2.21,0.151,2.697,0.427,3.111c0.597,0.896,2.46,1.173,3.005,1.121c2.589-0.25,2.688,1.842,3.187,1.842  C47.239,50.399,46.742,46.367,44.899,45.57z M44.173,47.044c-0.556-0.66-3.563-0.198-2.424-3.907  c0.108-0.354,0.499-0.779,0.551-1.145c0.059-0.409-0.007-2.529,0.074-2.124l0.648,2.938c0.037,1.255,2.52,0.721,2.52,0.721  s-3.436,0.982-2.52,1.85C44.638,46.908,45.275,48.353,44.173,47.044z"></path></g><g id="SvgjsG10319" featureKey="textGroupContainer" transform="matrix(1,0,0,1,535,10)" fill="url(#SvgjsLinearGradient10330)"><rect xmlns="http://www.w3.org/2000/svg" y="0" height="1" width="1" opacity="0"></rect><rect xmlns="http://www.w3.org/2000/svg" y="0" x="-395" width="3" height="134"></rect></g><g id="SvgjsG10320" featureKey="6VBqdG-0" transform="matrix(3.563493535820065,0,0,3.563493535820065,156.57460054662462,22.61903878507961)" fill="url(#SvgjsLinearGradient10334)"><path d="M12.46 20 l-1.28 -2.96 l-7.16 0 l-1.28 2.96 l-2.34 0 l6.24 -14 l1.92 0 l6.24 14 l-2.34 0 z M4.82 15.219999999999999 l5.56 0 l-2.78 -6.44 z M31.633000000000003 6 l0 14 l-2.26 0 l0 -9.06 l-4.2 9.06 l-1.86 0 l-4.18 -9.04 l0 9.04 l-2.26 0 l0 -14 l2.18 0 l5.2 11.02 l5.2 -11.02 l2.18 0 z M45.766 20 l-1.28 -2.96 l-7.16 0 l-1.28 2.96 l-2.34 0 l6.24 -14 l1.92 0 l6.24 14 l-2.34 0 z M38.126 15.219999999999999 l5.56 0 l-2.78 -6.44 z"></path></g><g id="SvgjsG10321" featureKey="rMoqOW-0" transform="matrix(0.5150686376569714,0,0,0.5150686376569714,157.53643768578021,101.03320452920599)" fill="url(#SvgjsLinearGradient10338)"><path d="M12.84 18.5 c-1.26 1.1 -2.9 1.7 -4.72 1.7 c-3.76 0 -7.22 -2.96 -7.22 -7.2 s3.46 -7.2 7.22 -7.2 c1.8 0 3.42 0.6 4.66 1.66 l-1.34 1.52 c-0.88 -0.68 -2.02 -1.1 -3.18 -1.1 c-2.72 0 -5.08 2.12 -5.08 5.12 s2.36 5.12 5.08 5.12 c1.18 0 2.36 -0.44 3.24 -1.16 z M40.476 20 l-2.36 0 l-3.3 -4.88 l-0.24 0 l-2.5 0 l0 4.88 l-2.2 0 l0 -14 l4.7 0 c3.14 0 5.06 1.92 5.06 4.62 c0 1.96 -1.02 3.46 -2.78 4.12 z M32.076 8.04 l0 5.16 l2.4 0 c1.78 0 2.96 -0.84 2.96 -2.58 s-1.18 -2.58 -2.96 -2.58 l-2.4 0 z M68.672 20 l-1.28 -2.96 l-7.16 0 l-1.28 2.96 l-2.34 0 l6.24 -14 l1.92 0 l6.24 14 l-2.34 0 z M61.032000000000004 15.219999999999999 l5.56 0 l-2.78 -6.44 z M96.268 8 l-6.26 0 l0 4.02 l5.16 0 l0 1.88 l-5.16 0 l0 6.1 l-2.26 0 l0 -14 l8.52 0 l0 2 z M122.544 6 l0 2.04 l-3.72 0 l0 11.96 l-2.2 0 l0 -11.96 l-3.72 0 l0 -2.04 l9.64 0 z M141.88 6 l0 14 l-2.2 0 l0 -14 l2.2 0 z M168.91599999999997 6 l2.2 0 l0 14 l-1.68 0 l-7.82 -9.98 l0 9.98 l-2.2 0 l0 -14 l1.7 0 l7.8 10 l0 -10 z M201.87199999999996 12.780000000000001 c0.44 4.58 -2.62 7.42 -6.32 7.42 c-3.84 0 -7.2 -2.96 -7.2 -7.2 s3.44 -7.2 7.2 -7.2 c1.8 0 3.42 0.6 4.66 1.66 l-1.34 1.52 c-0.88 -0.68 -2.02 -1.1 -3.18 -1.1 c-2.72 0 -5.06 2.12 -5.06 5.12 s2.26 5.12 4.92 5.12 c2.22 0 3.86 -1.02 4.28 -3.44 l-3.74 0 l0 -1.9 l5.78 0 z M251.54399999999998 20 l-1.28 -2.96 l-7.16 0 l-1.28 2.96 l-2.34 0 l6.24 -14 l1.92 0 l6.24 14 l-2.34 0 z M243.90399999999997 15.219999999999999 l5.56 0 l-2.78 -6.44 z M275.31999999999994 6 c3.14 0 5.06 1.92 5.06 4.62 s-1.92 4.5 -5.06 4.5 l-2.5 0 l0 4.88 l-2.2 0 l0 -14 l4.7 0 z M275.21999999999997 13.2 c1.78 0 2.96 -0.84 2.96 -2.58 s-1.18 -2.58 -2.96 -2.58 l-2.4 0 l0 5.16 l2.4 0 z M302.11599999999993 6 c3.14 0 5.06 1.92 5.06 4.62 s-1.92 4.5 -5.06 4.5 l-2.5 0 l0 4.88 l-2.2 0 l0 -14 l4.7 0 z M302.01599999999996 13.2 c1.78 0 2.96 -0.84 2.96 -2.58 s-1.18 -2.58 -2.96 -2.58 l-2.4 0 l0 5.16 l2.4 0 z M328.63199999999995 5.76 c2.3 0 3.88 1.48 4.54 2.92 l-1.64 0.94 c-0.7 -1.18 -1.6 -1.9 -2.9 -1.9 s-2.22 0.76 -2.22 1.8 c0 0.98 0.62 1.58 1.96 2.08 l0.98 0.36 c2.78 1.02 4.2 2.22 4.2 4.32 c0 2.58 -2.46 4.02 -4.84 4.02 c-2.44 0 -4.4 -1.46 -5 -3.44 l1.72 -0.88 c0.5 1.28 1.58 2.32 3.28 2.32 c1.4 0 2.56 -0.74 2.56 -2 c0 -1.34 -0.9 -1.88 -2.5 -2.48 l-0.96 -0.36 c-2.1 -0.78 -3.58 -1.84 -3.58 -4.02 c0 -2.12 1.92 -3.68 4.4 -3.68 z M380.96399999999994 6 l0 2.04 l-3.72 0 l0 11.96 l-2.2 0 l0 -11.96 l-3.72 0 l0 -2.04 l9.64 0 z M404.99999999999994 5.800000000000001 c3.76 0 7.2 2.96 7.2 7.2 s-3.44 7.2 -7.2 7.2 s-7.2 -2.96 -7.2 -7.2 s3.44 -7.2 7.2 -7.2 z M404.99999999999994 18.12 c2.58 0 4.92 -2.12 4.92 -5.12 s-2.34 -5.12 -4.92 -5.12 s-4.92 2.12 -4.92 5.12 s2.34 5.12 4.92 5.12 z M455.27199999999993 6 c3.14 0 5.06 1.92 5.06 4.62 s-1.92 4.5 -5.06 4.5 l-2.5 0 l0 4.88 l-2.2 0 l0 -14 l4.7 0 z M455.17199999999997 13.2 c1.78 0 2.96 -0.84 2.96 -2.58 s-1.18 -2.58 -2.96 -2.58 l-2.4 0 l0 5.16 l2.4 0 z M479.5679999999999 17.96 l6.34 0 l0 2.04 l-6.74 0 l-1.8 0 l0 -14 l2.2 0 l6.16 0 l0 2.04 l-6.16 0 l0 3.92 l4.74 0 l0 2 l-4.74 0 l0 4 z M513.7439999999999 20 l-2.36 0 l-3.3 -4.88 l-0.24 0 l-2.5 0 l0 4.88 l-2.2 0 l0 -14 l4.7 0 c3.14 0 5.06 1.92 5.06 4.62 c0 1.96 -1.02 3.46 -2.78 4.12 z M505.34399999999994 8.04 l0 5.16 l2.4 0 c1.78 0 2.96 -0.84 2.96 -2.58 s-1.18 -2.58 -2.96 -2.58 l-2.4 0 z M539.2 8 l-6.26 0 l0 4.02 l5.16 0 l0 1.88 l-5.16 0 l0 6.1 l-2.26 0 l0 -14 l8.52 0 l0 2 z M558.436 17.96 l6.34 0 l0 2.04 l-6.74 0 l-1.8 0 l0 -14 l2.2 0 l6.16 0 l0 2.04 l-6.16 0 l0 3.92 l4.74 0 l0 2 l-4.74 0 l0 4 z M593.652 18.5 c-1.26 1.1 -2.9 1.7 -4.72 1.7 c-3.76 0 -7.22 -2.96 -7.22 -7.2 s3.46 -7.2 7.22 -7.2 c1.8 0 3.42 0.6 4.66 1.66 l-1.34 1.52 c-0.88 -0.68 -2.02 -1.1 -3.18 -1.1 c-2.72 0 -5.08 2.12 -5.08 5.12 s2.36 5.12 5.08 5.12 c1.18 0 2.36 -0.44 3.24 -1.16 z M619.9280000000001 6 l0 2.04 l-3.72 0 l0 11.96 l-2.2 0 l0 -11.96 l-3.72 0 l0 -2.04 l9.64 0 z M639.264 6 l0 14 l-2.2 0 l0 -14 l2.2 0 z M663.7 5.800000000000001 c3.76 0 7.2 2.96 7.2 7.2 s-3.44 7.2 -7.2 7.2 s-7.2 -2.96 -7.2 -7.2 s3.44 -7.2 7.2 -7.2 z M663.7 18.12 c2.58 0 4.92 -2.12 4.92 -5.12 s-2.34 -5.12 -4.92 -5.12 s-4.92 2.12 -4.92 5.12 s2.34 5.12 4.92 5.12 z M697.6360000000001 6 l2.2 0 l0 14 l-1.68 0 l-7.82 -9.98 l0 9.98 l-2.2 0 l0 -14 l1.7 0 l7.8 10 l0 -10 z"></path></g>
			</g>
		</svg>
	